<svg width="664" height="96" viewBox="0 0 664 96" fill="none" xmlns="http://www.w3.org/2000/svg">
<path fill-rule="evenodd" clip-rule="evenodd" d="M68 0C85.6731 0 100 14.3269 100 32C117.673 32 132 46.3269 132 64C132 81.6731 117.673 96 100 96H68H60V62.9919C46.1982 59.4395 36 46.9107 36 32C36 14.3269 50.3269 0 68 0ZM76 32C76 36.4183 72.4183 40 68 40C63.5817 40 60 36.4183 60 32C60 27.5817 63.5817 24 68 24C72.4183 24 76 27.5817 76 32ZM108 64C108 68.4183 104.418 72 100 72C95.5817 72 92 68.4183 92 64C92 59.5817 95.5817 56 100 56C104.418 56 108 59.5817 108 64Z" fill="#0F62FE"/>
<path fill-rule="evenodd" clip-rule="evenodd" d="M32 32C14.3269 32 0 46.3269 0 64C0 81.6731 14.3269 96 32 96H64V64C64 46.3269 49.6731 32 32 32ZM32 72C36.4183 72 40 68.4183 40 64C40 59.5817 36.4183 56 32 56C27.5817 56 24 59.5817 24 64C24 68.4183 27.5817 72 32 72Z" fill="#002D9C"/>
<path fill-rule="evenodd" clip-rule="evenodd" d="M416 96C433.673 96 448 81.6731 448 64C448 46.3269 433.673 32 416 32C398.327 32 384 46.3269 384 64C384 81.6731 398.327 96 416 96ZM416 80C424.837 80 432 72.8366 432 64C432 55.1634 424.837 48 416 48C407.163 48 400 55.1634 400 64C400 72.8366 407.163 80 416 80Z" fill="#002D9C"/>
<rect x="360" y="15" width="16" height="80" rx="1" fill="#002D9C"/>
<path fill-rule="evenodd" clip-rule="evenodd" d="M577 17C576.448 17 576 17.4477 576 18V38.3977C570.986 34.3804 564.754 32 558 32C541.431 32 528 46.3269 528 64C528 81.6731 541.431 96 558 96C564.754 96 570.986 93.6196 576 89.6023V94C576 94.5523 576.448 95 577 95H591C591.552 95 592 94.5523 592 94V18C592 17.4477 591.552 17 591 17H577ZM576 64C576 55.1634 568.837 48 560 48C551.163 48 544 55.1634 544 64C544 72.8366 551.163 80 560 80C568.837 80 576 72.8366 576 64Z" fill="#002D9C"/>
<path fill-rule="evenodd" clip-rule="evenodd" d="M237 17C237.552 17 238 17.4477 238 18V38.3977C243.014 34.3804 249.246 32 256 32C272.569 32 286 46.3269 286 64C286 81.6731 272.569 96 256 96C249.246 96 243.014 93.6196 238 89.6023V94C238 94.5523 237.552 95 237 95H223C222.448 95 222 94.5523 222 94V18C222 17.4477 222.448 17 223 17H237ZM238 64C238 55.1634 245.163 48 254 48C262.837 48 270 55.1634 270 64C270 72.8366 262.837 80 254 80C245.163 80 238 72.8366 238 64Z" fill="#002D9C"/>
<path fill-rule="evenodd" clip-rule="evenodd" d="M196 89.6023C190.986 93.6196 184.754 96 178 96C161.431 96 148 81.6731 148 64C148 46.3269 161.431 32 178 32C184.754 32 190.986 34.3804 196 38.3977V33C196 32.4477 196.448 32 197 32H211C211.552 32 212 32.4477 212 33V94C212 94.5523 211.552 95 211 95H197C196.448 95 196 94.5523 196 94V89.6023ZM196 64C196 72.8366 188.837 80 180 80C171.163 80 164 72.8366 164 64C164 55.1634 171.163 48 180 48C188.837 48 196 55.1634 196 64Z" fill="#002D9C"/>
<path fill-rule="evenodd" clip-rule="evenodd" d="M456 34C456 33.4477 456.448 33 457 33H471C471.552 33 472 33.4477 472 34V64C472 72.8366 479.163 80 488 80C496.837 80 504 72.8366 504 64V34C504 33.4477 504.448 33 505 33H519C519.552 33 520 33.4477 520 34V94C520 94.5523 519.552 95 519 95H505C504.448 95 504 94.5523 504 94V89.6023C498.986 93.6196 492.754 96 486 96C469.431 96 456 81.6731 456 64V34Z" fill="#002D9C"/>
<path fill-rule="evenodd" clip-rule="evenodd" d="M600 34C600 33.4477 600.448 33 601 33H644H662.064C662.876 33 663.35 33.9166 662.88 34.5787L653 48.5L631 79.5H663C663.552 79.5 664 79.9477 664 80.5V94C664 94.5523 663.552 95 663 95H620H601.936C601.124 95 600.65 94.0834 601.12 93.4213L611 79.5L633 48.5H601C600.448 48.5 600 48.0523 600 47.5V34Z" fill="#002D9C"/>
<path fill-rule="evenodd" clip-rule="evenodd" d="M352.859 74.9289C353.458 75.0537 353.806 75.6837 353.572 76.2493C348.763 87.8444 337.334 96 324 96C306.327 96 292 81.6731 292 64C292 46.3269 306.327 32 324 32C337.334 32 348.763 40.1556 353.572 51.7507C353.806 52.3163 353.458 52.9463 352.859 53.0711L338.676 56.0258C338.249 56.1147 337.817 55.9149 337.586 55.5449C334.761 51.0146 329.732 48 324 48C315.163 48 308 55.1634 308 64C308 72.8366 315.163 80 324 80C329.732 80 334.761 76.9854 337.586 72.4551C337.817 72.0851 338.249 71.8853 338.676 71.9742L352.859 74.9289Z" fill="#002D9C"/>
</svg>
