<svg width="32" height="32" viewBox="0 0 32 32" fill="none" xmlns="http://www.w3.org/2000/svg">
<path fill-rule="evenodd" clip-rule="evenodd" d="M7 4C5.34315 4 4 5.34315 4 7V25C4 26.6569 5.34315 28 7 28H25C26.6569 28 28 26.6569 28 25V7C28 5.34315 26.6569 4 25 4H7ZM24 10V11C23 11 22 12 22 13H21C21 12 20 11 19 10.9994V9.99937C20 10 21 9 21 8H22C22 9 23 10 24 10ZM8 18.0008V19.0017C9.32502 19.0017 10.2523 19.3301 10.9141 19.7712C11.5821 20.2166 12.0399 20.8175 12.3556 21.4489C12.6732 22.0842 12.837 22.7316 12.9199 23.2286C12.9609 23.4747 12.981 23.6776 12.9908 23.8151C12.9957 23.8837 12.998 23.9355 12.9991 23.9676C12.9996 23.9837 12.9999 23.9948 12.9999 24.0006L13 24.0026C13 24.0022 13 24.0017 14 24.0017C15 24.0017 15 24.0022 15 24.0026L15.0001 24.0006C15.0001 23.9974 15.0002 23.9925 15.0004 23.986C15.0005 23.9809 15.0007 23.9747 15.0009 23.9676C15.002 23.9355 15.0043 23.8837 15.0092 23.8151C15.019 23.6776 15.0391 23.4747 15.0801 23.2286C15.163 22.7316 15.3268 22.0842 15.6444 21.4489C15.9601 20.8175 16.4179 20.2166 17.0859 19.7712C17.7477 19.3301 18.675 19.0017 20 19.0017V18.0008V17.0017C18.675 17.0017 17.7477 16.6733 17.0859 16.2321C16.4179 15.7868 15.9601 15.1858 15.6444 14.5545C15.3268 13.9192 15.163 13.2718 15.0801 12.7748C15.0391 12.5287 15.019 12.3257 15.0092 12.1883C15.0043 12.1197 15.002 12.0679 15.0009 12.0358C15.0004 12.0197 15.0001 12.0086 15.0001 12.0028L15 12.0008C15 12.0012 15 12.0017 14 12.0017C13 12.0017 13 12.0012 13 12.0008L12.9999 12.0028C12.9999 12.0086 12.9996 12.0197 12.9991 12.0358C12.998 12.0679 12.9957 12.1197 12.9908 12.1883C12.981 12.3257 12.9609 12.5287 12.9199 12.7748C12.837 13.2718 12.6732 13.9192 12.3556 14.5545C12.0399 15.1858 11.5821 15.7868 10.9141 16.2321C10.2523 16.6733 9.32502 17.0017 8 17.0017V18.0008Z" fill="#0F62FE"/>
</svg>
