<svg width="20" height="20" viewBox="0 0 20 20" fill="none" xmlns="http://www.w3.org/2000/svg">
<path fill-rule="evenodd" clip-rule="evenodd" d="M8.58569 19.1666C9.2273 19.1666 9.82647 18.846 10.1824 18.3121L11.4352 16.4329C11.4656 16.3872 11.5005 16.3447 11.5393 16.3059L13.1904 14.6548C13.5645 14.2807 13.8404 13.8269 14.0018 13.3333H17.3334C17.8857 13.3333 18.3334 12.8856 18.3334 12.3333V3.49996C18.3334 2.94767 17.8857 2.49996 17.3334 2.49996H13.5C13.1216 2.49996 12.7922 2.71019 12.6224 3.02024C12.1055 2.69082 11.4917 2.49996 10.8334 2.49996H5.47535C4.63946 2.49996 3.85889 2.91771 3.39522 3.61321L2.42176 5.0734C2.22556 5.36769 2.09405 5.70027 2.0359 6.04915L1.70766 8.01858C1.69782 8.07765 1.68164 8.13548 1.6594 8.19108L1.01218 9.80912C0.894062 10.1044 0.833374 10.4195 0.833374 10.7376V11.6666C0.833374 13.0473 1.95266 14.1666 3.33337 14.1666H7.59385L6.78306 16.1823C6.70599 16.4135 6.66671 16.6556 6.66671 16.8993V17.2476C6.66671 18.3075 7.52586 19.1666 8.58569 19.1666ZM14.1667 5.83149C14.1667 5.83209 14.1667 5.83269 14.1667 5.83329L14.1667 11.6666H16.6667V4.16663H14.1667V5.83149ZM12.5 5.83149C12.4991 4.91184 11.7532 4.16663 10.8334 4.16663H5.47535C5.19672 4.16663 4.93653 4.30588 4.78197 4.53771L3.80851 5.9979C3.74311 6.096 3.69928 6.20685 3.67989 6.32315L3.35165 8.29258C3.32212 8.46978 3.27358 8.64327 3.20686 8.81006L2.55964 10.4281C2.52027 10.5265 2.50004 10.6316 2.50004 10.7376V11.6666C2.50004 12.1269 2.87314 12.5 3.33337 12.5H8.47491C9.16989 12.5 9.65295 13.1914 9.41389 13.8439L8.3642 16.7094C8.34378 16.7706 8.33337 16.8348 8.33337 16.8993V17.2476C8.33337 17.387 8.44634 17.5 8.58569 17.5C8.67005 17.5 8.74883 17.4578 8.79562 17.3876L10.0485 15.5084C10.1398 15.3714 10.2444 15.2438 10.3608 15.1273L12.0119 13.4763C12.324 13.1641 12.4996 12.7409 12.5 12.2995V5.83149Z" fill="#8b0000"/>
</svg>
