<svg width="24" height="24" viewBox="0 0 24 24" fill="none" xmlns="http://www.w3.org/2000/svg">
<path fill-rule="evenodd" clip-rule="evenodd" d="M13.4142 12L18.7071 17.2929C19.0976 17.6834 19.0976 18.3166 18.7071 18.7071C18.3166 19.0976 17.6834 19.0976 17.2929 18.7071L11.2929 12.7071C10.9024 12.3166 10.9024 11.6834 11.2929 11.2929L17.2929 5.29289C17.6834 4.90237 18.3166 4.90237 18.7071 5.29289C19.0976 5.68342 19.0976 6.31658 18.7071 6.70711L13.4142 12ZM7 5C6.44772 5 6 5.44772 6 6V18C6 18.5523 6.44772 19 7 19C7.55228 19 8 18.5523 8 18V6C8 5.44772 7.55228 5 7 5Z" fill="#EBECF0"/>
</svg>
