<svg width="20" height="20" viewBox="0 0 20 20" fill="none" xmlns="http://www.w3.org/2000/svg">
<path fill-rule="evenodd" clip-rule="evenodd" d="M11.4143 0.833374C10.7727 0.833374 10.1735 1.15404 9.81763 1.6879L8.56479 3.56714C8.53435 3.6128 8.49948 3.65534 8.46067 3.69415L6.8096 5.34522C6.43554 5.71929 6.15956 6.1731 5.99822 6.66671H2.66663C2.11434 6.66671 1.66663 7.11442 1.66663 7.66671V16.5C1.66663 17.0523 2.11434 17.5 2.66663 17.5H6.49996C6.87841 17.5 7.20776 17.2898 7.37759 16.9798C7.89448 17.3092 8.50826 17.5 9.16663 17.5H14.5247C15.3605 17.5 16.1411 17.0823 16.6048 16.3868L17.5782 14.9266C17.7744 14.6323 17.9059 14.2997 17.9641 13.9508L18.2923 11.9814C18.3022 11.9224 18.3184 11.8645 18.3406 11.8089L18.9878 10.1909C19.1059 9.89558 19.1666 9.58045 19.1666 9.2624V8.33337C19.1666 6.95266 18.0473 5.83337 16.6666 5.83337H12.4061L13.2169 3.81766C13.294 3.58647 13.3333 3.34437 13.3333 3.10067V2.75235C13.3333 1.69253 12.4741 0.833374 11.4143 0.833374ZM7.49996 14.1667C7.49996 15.0872 8.24615 15.8334 9.16663 15.8334H14.5247C14.8033 15.8334 15.0635 15.6941 15.218 15.4623L16.1915 14.0021C16.2569 13.904 16.3007 13.7931 16.3201 13.6769L16.6483 11.7074C16.6779 11.5302 16.7264 11.3567 16.7931 11.1899L17.4404 9.5719C17.4797 9.47346 17.5 9.36842 17.5 9.2624V8.33337C17.5 7.87314 17.1269 7.50004 16.6666 7.50004H11.5251C10.8301 7.50004 10.3471 6.80863 10.5861 6.15607L11.6358 3.29061C11.6562 3.22937 11.6666 3.16523 11.6666 3.10067V2.75235C11.6666 2.61301 11.5537 2.50004 11.4143 2.50004C11.33 2.50004 11.2512 2.5422 11.2044 2.6124L9.95154 4.49164C9.86022 4.62862 9.7556 4.75625 9.63919 4.87266L7.98811 6.52373C7.67555 6.83629 7.49996 7.26021 7.49996 7.70224V14.1667ZM5.83329 8.33337H3.33329V15.8334H5.83329V14.1667V8.33337Z" fill="#058b00"/>
</svg>
