<svg width="25" height="24" viewBox="0 0 25 24" fill="none" xmlns="http://www.w3.org/2000/svg">
<rect x="11.5" width="3" height="6" rx="1.5" fill="#252733"/>
<rect opacity="0.52" x="11.5" y="18" width="3" height="6" rx="1.5" fill="#252733"/>
<rect opacity="0.84" x="22.1426" y="4.69922" width="3" height="6" rx="1.5" transform="rotate(60 22.1426 4.69922)" fill="#252733"/>
<rect opacity="0.36" x="6.55371" y="13.6992" width="3" height="6" rx="1.5" transform="rotate(60 6.55371 13.6992)" fill="#252733"/>
<rect opacity="0.92" x="17.2012" y="0.855469" width="3" height="6" rx="1.5" transform="rotate(30 17.2012 0.855469)" fill="#252733"/>
<rect opacity="0.44" x="8.20117" y="16.4473" width="3" height="6" rx="1.5" transform="rotate(30 8.20117 16.4473)" fill="#252733"/>
<rect opacity="0.76" x="24.5" y="10.5" width="3" height="6" rx="1.5" transform="rotate(90 24.5 10.5)" fill="#252733"/>
<rect opacity="0.28" x="6.5" y="10.5" width="3" height="6" rx="1.5" transform="rotate(90 6.5 10.5)" fill="#252733"/>
<rect opacity="0.6" x="19.7988" y="21.6445" width="3" height="6" rx="1.5" transform="rotate(150 19.7988 21.6445)" fill="#252733"/>
<rect opacity="0.12" x="10.7988" y="6.05273" width="3" height="6" rx="1.5" transform="rotate(150 10.7988 6.05273)" fill="#252733"/>
<rect opacity="0.68" x="23.6426" y="16.6992" width="3" height="6" rx="1.5" transform="rotate(120 23.6426 16.6992)" fill="#252733"/>
<rect opacity="0.2" x="8.05371" y="7.69922" width="3" height="6" rx="1.5" transform="rotate(120 8.05371 7.69922)" fill="#252733"/>
</svg>
