<svg width="32" height="32" viewBox="0 0 32 32" fill="none" xmlns="http://www.w3.org/2000/svg">
<path fill-rule="evenodd" clip-rule="evenodd" d="M26.2788 22.196C27.3713 20.3874 28 18.2671 28 16C28 9.37258 22.6274 4 16 4C9.37258 4 4 9.37258 4 16C4 18.2671 4.62869 20.3874 5.72124 22.196C5.79613 22.1131 5.87327 22.032 5.95262 21.9526C7.20286 20.7024 8.89856 20 10.6667 20H21.3333C23.1014 20 24.7971 20.7024 26.0474 21.9526C26.1267 22.032 26.2039 22.1131 26.2788 22.196ZM24.6044 24.3645C24.4731 24.1779 24.3252 24.0017 24.1618 23.8382C23.4116 23.0881 22.3942 22.6667 21.3333 22.6667H10.6667C9.6058 22.6667 8.58839 23.0881 7.83824 23.8382C7.67476 24.0017 7.52688 24.1779 7.39559 24.3645C9.5759 26.6069 12.6253 28 16 28C19.3747 28 22.4241 26.6069 24.6044 24.3645ZM16 14.6667C17.4728 14.6667 18.6667 13.4728 18.6667 12C18.6667 10.5272 17.4728 9.33333 16 9.33333C14.5272 9.33333 13.3333 10.5272 13.3333 12C13.3333 13.4728 14.5272 14.6667 16 14.6667ZM16 17.3333C18.9455 17.3333 21.3333 14.9455 21.3333 12C21.3333 9.05448 18.9455 6.66667 16 6.66667C13.0545 6.66667 10.6667 9.05448 10.6667 12C10.6667 14.9455 13.0545 17.3333 16 17.3333Z" fill="#70737A"/>
</svg>
